<svg xmlns="http://www.w3.org/2000/svg" version="1.1" xmlns:xlink="http://www.w3.org/1999/xlink" xmlns:svgjs="http://svgjs.dev/svgjs" viewBox="0 0 800 800" width="800" height="800"><g stroke-width="1.5" stroke="#ffffff" fill="none"><rect width="114.28571428571429" height="114.28571428571429" x="0" y="0"></rect><rect width="114.28571428571429" height="114.28571428571429" x="114.28571428571429" y="0"></rect><rect width="114.28571428571429" height="114.28571428571429" x="228.57142857142858" y="0"></rect><rect width="114.28571428571429" height="114.28571428571429" x="342.8571428571429" y="0"></rect><rect width="114.28571428571429" height="114.28571428571429" x="457.14285714285717" y="0"></rect><rect width="114.28571428571429" height="114.28571428571429" x="571.4285714285714" y="0"></rect><rect width="114.28571428571429" height="114.28571428571429" x="685.7142857142858" y="0"></rect><rect width="114.28571428571429" height="114.28571428571429" x="800.0000000000001" y="0"></rect><rect width="114.28571428571429" height="114.28571428571429" x="0" y="114.28571428571429"></rect><rect width="114.28571428571429" height="114.28571428571429" x="114.28571428571429" y="114.28571428571429"></rect><rect width="114.28571428571429" height="114.28571428571429" x="228.57142857142858" y="114.28571428571429"></rect><rect width="114.28571428571429" height="114.28571428571429" x="342.8571428571429" y="114.28571428571429"></rect><rect width="114.28571428571429" height="114.28571428571429" x="457.14285714285717" y="114.28571428571429"></rect><rect width="114.28571428571429" height="114.28571428571429" x="571.4285714285714" y="114.28571428571429"></rect><rect width="114.28571428571429" height="114.28571428571429" x="685.7142857142858" y="114.28571428571429"></rect><rect width="114.28571428571429" height="114.28571428571429" x="800.0000000000001" y="114.28571428571429"></rect><rect width="114.28571428571429" height="114.28571428571429" x="0" y="228.57142857142858"></rect><rect width="114.28571428571429" height="114.28571428571429" x="114.28571428571429" y="228.57142857142858"></rect><rect width="114.28571428571429" height="114.28571428571429" x="228.57142857142858" y="228.57142857142858"></rect><rect width="114.28571428571429" height="114.28571428571429" x="342.8571428571429" y="228.57142857142858"></rect><rect width="114.28571428571429" height="114.28571428571429" x="457.14285714285717" y="228.57142857142858"></rect><rect width="114.28571428571429" height="114.28571428571429" x="571.4285714285714" y="228.57142857142858"></rect><rect width="114.28571428571429" height="114.28571428571429" x="685.7142857142858" y="228.57142857142858"></rect><rect width="114.28571428571429" height="114.28571428571429" x="800.0000000000001" y="228.57142857142858"></rect><rect width="114.28571428571429" height="114.28571428571429" x="0" y="342.8571428571429"></rect><rect width="114.28571428571429" height="114.28571428571429" x="114.28571428571429" y="342.8571428571429"></rect><rect width="114.28571428571429" height="114.28571428571429" x="228.57142857142858" y="342.8571428571429"></rect><rect width="114.28571428571429" height="114.28571428571429" x="342.8571428571429" y="342.8571428571429"></rect><rect width="114.28571428571429" height="114.28571428571429" x="457.14285714285717" y="342.8571428571429"></rect><rect width="114.28571428571429" height="114.28571428571429" x="571.4285714285714" y="342.8571428571429"></rect><rect width="114.28571428571429" height="114.28571428571429" x="685.7142857142858" y="342.8571428571429"></rect><rect width="114.28571428571429" height="114.28571428571429" x="800.0000000000001" y="342.8571428571429"></rect><rect width="114.28571428571429" height="114.28571428571429" x="0" y="457.14285714285717"></rect><rect width="114.28571428571429" height="114.28571428571429" x="114.28571428571429" y="457.14285714285717"></rect><rect width="114.28571428571429" height="114.28571428571429" x="228.57142857142858" y="457.14285714285717"></rect><rect width="114.28571428571429" height="114.28571428571429" x="342.8571428571429" y="457.14285714285717"></rect><rect width="114.28571428571429" height="114.28571428571429" x="457.14285714285717" y="457.14285714285717"></rect><rect width="114.28571428571429" height="114.28571428571429" x="571.4285714285714" y="457.14285714285717"></rect><rect width="114.28571428571429" height="114.28571428571429" x="685.7142857142858" y="457.14285714285717"></rect><rect width="114.28571428571429" height="114.28571428571429" x="800.0000000000001" y="457.14285714285717"></rect><rect width="114.28571428571429" height="114.28571428571429" x="0" y="571.4285714285714"></rect><rect width="114.28571428571429" height="114.28571428571429" x="114.28571428571429" y="571.4285714285714"></rect><rect width="114.28571428571429" height="114.28571428571429" x="228.57142857142858" y="571.4285714285714"></rect><rect width="114.28571428571429" height="114.28571428571429" x="342.8571428571429" y="571.4285714285714"></rect><rect width="114.28571428571429" height="114.28571428571429" x="457.14285714285717" y="571.4285714285714"></rect><rect width="114.28571428571429" height="114.28571428571429" x="571.4285714285714" y="571.4285714285714"></rect><rect width="114.28571428571429" height="114.28571428571429" x="685.7142857142858" y="571.4285714285714"></rect><rect width="114.28571428571429" height="114.28571428571429" x="800.0000000000001" y="571.4285714285714"></rect><rect width="114.28571428571429" height="114.28571428571429" x="0" y="685.7142857142858"></rect><rect width="114.28571428571429" height="114.28571428571429" x="114.28571428571429" y="685.7142857142858"></rect><rect width="114.28571428571429" height="114.28571428571429" x="228.57142857142858" y="685.7142857142858"></rect><rect width="114.28571428571429" height="114.28571428571429" x="342.8571428571429" y="685.7142857142858"></rect><rect width="114.28571428571429" height="114.28571428571429" x="457.14285714285717" y="685.7142857142858"></rect><rect width="114.28571428571429" height="114.28571428571429" x="571.4285714285714" y="685.7142857142858"></rect><rect width="114.28571428571429" height="114.28571428571429" x="685.7142857142858" y="685.7142857142858"></rect><rect width="114.28571428571429" height="114.28571428571429" x="800.0000000000001" y="685.7142857142858"></rect><rect width="114.28571428571429" height="114.28571428571429" x="0" y="800.0000000000001"></rect><rect width="114.28571428571429" height="114.28571428571429" x="114.28571428571429" y="800.0000000000001"></rect><rect width="114.28571428571429" height="114.28571428571429" x="228.57142857142858" y="800.0000000000001"></rect><rect width="114.28571428571429" height="114.28571428571429" x="342.8571428571429" y="800.0000000000001"></rect><rect width="114.28571428571429" height="114.28571428571429" x="457.14285714285717" y="800.0000000000001"></rect><rect width="114.28571428571429" height="114.28571428571429" x="571.4285714285714" y="800.0000000000001"></rect><rect width="114.28571428571429" height="114.28571428571429" x="685.7142857142858" y="800.0000000000001"></rect><rect width="114.28571428571429" height="114.28571428571429" x="800.0000000000001" y="800.0000000000001"></rect></g></svg>